#!OML:ASF H:\Pregnant\Project 1\Capture day 1\Session 1\femalepreg.ASF
:FULLY-SPECIFIED
:DEGREES
197
root 3.71326 10.2123 4.51614 52.8232 -7.33816 0.841248
lowerback -7.13994 -1.6847 -2.98586
upperback -4.83356 -2.11145 -1.21924
thorax -0.931015 -1.02134 0.287053
lowerneck -52.375 -1.49746 0.974989
upperneck 14.5851 -4.13057 5.14595
head 12.0474 -0.862039 1.21303
rclavicle -7.95139e-015 7.95139e-016
rhumerus -68.713 58.5653 -98.6793
rradius 77.4241
rwrist -13.2147
rhand -59.4822 -53.0207
rfingers 7.12502
rthumb -31.6588 -80.2945
lclavicle -7.95139e-015 7.95139e-016
lhumerus -62.4033 -28.9998 81.2345
lradius 69.0981
lwrist 12.8483
lhand -57.0234 -87.7475
lfingers 7.12502
lthumb -29.3138 -60.0382
rfemur -144.023 -5.70673 21.6211
rtibia 88.1683
rfoot 6.42883 -1.90947
rtoes -6.09774
lfemur -140.498 6.6721 -28.0827
ltibia 81.7925
lfoot 8.73603 -1.09647
ltoes -5.52565
198
root 3.71318 10.2309 4.52725 52.6876 -7.66005 1.09882
lowerback -6.87941 -1.74144 -3.43071
upperback -4.79722 -2.17419 -1.321
thorax -1.02535 -1.0431 0.434107
lowerneck -52.2546 -1.74323 0.78208
upperneck 14.3885 -4.36746 5.36854
head 11.975 -0.947704 1.28075
rclavicle -1.63003e-014 8.74653e-015
rhumerus -68.4516 58.3421 -98.6704
rradius 76.9217
rwrist -12.9079
rhand -59.582 -53.1006
rfingers 7.12502
rthumb -31.7538 -80.3556
lclavicle -1.63003e-014 8.74653e-015
lhumerus -62.2718 -28.5435 81.1733
lradius 68.6169
lwrist 12.4194
lhand -57.0465 -88.2451
lfingers 7.12502
lthumb -29.3359 -60.5396
rfemur -143.837 -5.78317 21.2635
rtibia 88.0668
rfoot 6.42179 -1.82917
rtoes -6.18758
lfemur -140.134 6.61995 -28.4674
ltibia 81.7275
lfoot 8.5409 -1.03271
ltoes -5.60307
199
root 3.71305 10.2508 4.53966 52.5479 -7.93072 1.31755
lowerback -6.61627 -1.79288 -3.81284
upperback -4.75647 -2.23559 -1.4045
thorax -1.11761 -1.06517 0.565236
lowerneck -52.1412 -1.98432 0.606368
upperneck 14.207 -4.60662 5.57513
head 11.9096 -1.03586 1.33894
rclavicle -1.11319e-014 -6.36111e-015
rhumerus -68.1833 58.1161 -98.6577
rradius 76.4115
rwrist -12.5968
rhand -59.6549 -53.1447
rfingers 7.12502
rthumb -31.8233 -80.3859
lclavicle -1.11319e-014 -6.36111e-015
lhumerus -62.1236 -28.0771 81.1035
lradius 68.1301
lwrist 11.994
lhand -57.0677 -88.7144
lfingers 7.12502
lthumb -29.3561 -61.0125
rfemur -143.617 -5.85164 20.9588
rtibia 87.9684
rfoot 6.38965 -1.76441
rtoes -6.27638
lfemur -139.758 6.57977 -28.774
ltibia 81.6478
lfoot 8.35614 -0.964388
ltoes -5.64796
200
root 3.7129 10.273 4.55362 52.4159 -8.11331 1.47077
lowerback -6.34773 -1.83866 -4.0859
upperback -4.71405 -2.29703 -1.45808
thorax -1.21319 -1.08915 0.666745
lowerneck -52.068 -2.2212 0.445958
upperneck 14.0691 -4.85 5.7664
head 11.866 -1.12585 1.38837
rclavicle 1.98785e-015 -1.82882e-014
rhumerus -67.9087 57.8938 -98.6457
rradius 75.8883
rwrist -12.2818
rhand -59.6958 -53.1752
rfingers 7.12502
rthumb -31.8622 -80.4087
lclavicle 1.98785e-015 -1.82882e-014
lhumerus -61.9525 -27.6003 81.0248
lradius 67.6242
lwrist 11.5762
lhand -57.081 -89.1795
lfingers 7.12502
lthumb -29.3688 -61.4798
rfemur -143.352 -5.90791 20.743
rtibia 87.868
rfoot 6.32372 -1.7325
rtoes -6.34472
lfemur -139.375 6.55326 -28.9525
ltibia 81.5441
lfoot 8.19095 -0.889366
ltoes -5.67384
201
root 3.71248 10.2974 4.56947 52.3096 -8.1875 1.53106
lowerback -6.08319 -1.87483 -4.21813
upperback -4.67615 -2.35326 -1.47338
thorax -1.31436 -1.11304 0.729754
lowerneck -52.0194 -2.45035 0.312016
upperneck 13.9633 -5.09726 5.93417
head 11.837 -1.21874 1.42388
rclavicle 3.45885e-014 1.59028e-015
rhumerus -67.6329 57.6746 -98.6387
rradius 75.3536
rwrist -11.9667
rhand -59.6728 -53.1654
rfingers 7.12502
rthumb -31.8403 -80.4032
lclavicle 3.45885e-014 1.59028e-015
lhumerus -61.7672 -27.1138 80.9387
lradius 67.11
lwrist 11.163
lhand -57.0885 -89.6298
lfingers 7.12502
lthumb -29.376 -61.9313
rfemur -143.046 -5.93576 20.6444
rtibia 87.7633
rfoot 6.22355 -1.74332
rtoes -6.40703
lfemur -139.01 6.55158 -28.9725
ltibia 81.4168
lfoot 8.05529 -0.813956
ltoes -5.71193
202
root 3.71199 10.3239 4.58733 52.2337 -8.14425 1.50056
lowerback -5.82892 -1.90434 -4.20034
upperback -4.64614 -2.40709 -1.45009
thorax -1.42154 -1.13857 0.749219
lowerneck -51.9611 -2.67626 0.187447
upperneck 13.8632 -5.34707 6.10237
head 11.8104 -1.31225 1.45759
rclavicle 7.55382e-015 2.78299e-014
rhumerus -67.3624 57.4607 -98.641
rradius 74.8093
rwrist -11.6619
rhand -59.5957 -53.0955
rfingers 7.12502
rthumb -31.7669 -80.348
lclavicle 7.55382e-015 2.78299e-014
lhumerus -61.5744 -26.6207 80.8484
lradius 66.5815
lwrist 10.7551
lhand -57.0933 90.1247
lfingers 7.12502
lthumb -29.3806 -62.4271
rfemur -142.706 -5.94475 20.6697
rtibia 87.6569
rfoot 6.08593 -1.79626
rtoes -6.45601
lfemur -138.667 6.56462 -28.8287
ltibia 81.2661
lfoot 7.95217 -0.736264
ltoes -5.75568
203
root 3.7114 10.3518 4.60695 52.186 -8.00203 1.39509
lowerback -5.58958 -1.92834 -4.05647
upperback -4.6243 -2.45755 -1.39598
thorax -1.53227 -1.16498 0.730346
lowerneck -51.8856 -2.89522 0.0828108
upperneck 13.7631 -5.59836 6.26046
head 11.7822 -1.40743 1.4837
rclavicle 4.77083e-015 -7.15625e-015
rhumerus -67.1011 57.2524 -98.6567
rradius 74.2584
rwrist -11.3664
rhand -59.4955 -53.0234
rfingers 7.12502
rthumb -31.6714 -80.2947
lclavicle 4.77083e-015 -7.15625e-015
lhumerus -61.3765 -26.1239 80.7527
lradius 66.0422
lwrist 10.3516
lhand -57.0952 90.628
lfingers 7.12502
lthumb -29.3824 -62.9306
rfemur -142.343 -5.93928 20.799
rtibia 87.5516
rfoot 5.91821 -1.88622
rtoes -6.49951
lfemur -138.351 6.58695 -28.5519
ltibia 81.0985
lfoot 7.87526 -0.661209
ltoes -5.82792
204
root 3.71092 10.3808 4.62783 52.149 -7.79218 1.25362
lowerback -5.35722 -1.95035 -3.83275
upperback -4.60733 -2.50705 -1.32624
thorax -1.64671 -1.1927 0.683298
lowerneck -51.7687 -3.10822 -0.0118461
upperneck 13.6372 -5.84769 6.42333
head 11.7407 -1.50221 1.51012
rclavicle -3.57812e-014 -3.4191e-014
rhumerus -66.8527 57.0454 -98.6871
rradius 73.7021
rwrist -11.0835
rhand -59.3915 -52.9513
rfingers 7.12502
rthumb -31.5723 -80.2421
lclavicle -3.57812e-014 -3.4191e-014
lhumerus -61.1736 -25.6298 80.6509
lradius 65.4903
lwrist 9.94946
lhand -57.0942 91.143
lfingers 7.12502
lthumb -29.3815 -63.4455
rfemur -141.964 -5.94023 20.9901
rtibia 87.4523
rfoot 5.72956 -1.99882
rtoes -6.53547
lfemur -138.039 6.60148 -28.1942
ltibia 80.9177
lfoot 7.81295 -0.589436
ltoes -5.9179
205
root 3.71047 10.41 4.64955 52.1134 -7.55013 1.09809
lowerback -5.13691 -1.9715 -3.57318
upperback -4.58854 -2.55452 -1.25098
thorax -1.75417 -1.22054 0.621863
lowerneck -51.6216 -3.31134 -0.0977056
upperneck 13.4892 -6.08995 6.5927
head 11.6883 -1.59389 1.539
rclavicle 2.38542e-015 1.98785e-014
rhumerus -66.6079 56.8425 -98.726
rradius 73.1402
rwrist -10.806
rhand -59.3032 -52.9234
rfingers 7.12502
rthumb -31.4883 -80.2306
lclavicle 2.38542e-015 1.98785e-014
lhumerus -60.9549 -25.1297 80.5351
lradius 64.9265
lwrist 9.53529
lhand -57.0921 91.6282
lfingers 7.12502
lthumb -29.3794 -63.9303
rfemur -141.578 -5.94741 21.2092
rtibia 87.3605
rfoot 5.52832 -2.11997
rtoes -6.5759
lfemur -137.729 6.60961 -27.8017
ltibia 80.7327
lfoot 7.75645 -0.519702
ltoes -6.00672
206
root 3.71008 10.4397 4.6713 52.05 -7.31315 0.966282
lowerback -4.9061 -1.99441 -3.33241
upperback -4.55931 -2.60248 -1.18395
thorax -1.85679 -1.24855 0.562848
lowerneck -51.4382 -3.5072 -0.184112
upperneck 13.3075 -6.3228 6.77433
head 11.6202 -1.6817 1.57434
rclavicle 2.38542e-015 1.74931e-014
rhumerus -66.3593 56.6405 -98.767
rradius 72.5702
rwrist -10.5334
rhand -59.2621 -52.9819
rfingers 7.12502
rthumb -31.4491 -80.2968
lclavicle 2.38542e-015 1.74931e-014
lhumerus -60.7125 -24.6218 80.4031
lradius 64.3486
lwrist 9.10732
lhand -57.0859 92.0461
lfingers 7.12502
lthumb -29.3735 -64.3473
rfemur -141.172 -5.97601 21.4078
rtibia 87.2738
rfoot 5.32459 -2.23667
rtoes -6.61703
lfemur -137.383 6.60113 -27.4278
ltibia 80.5437
lfoot 7.69242 -0.45247
ltoes -6.1013
